<svg xmlns="http://www.w3.org/2000/svg" width="54" height="46" viewBox="0 0 54 46">
    <g fill="none" fill-rule="evenodd">
        <path fill="#EF8F97" d="M22.844 23.012a2.384 2.384 0 0 1-.543 3.367 2.48 2.48 0 0 1-3.425-.533 2.385 2.385 0 0 1 .543-3.368 2.48 2.48 0 0 1 3.425.534"/>
        <path fill="#FF7500" d="M19.419 26.372a2.384 2.384 0 0 1-.543-3.367l8.071-10.922a2.48 2.48 0 0 1 3.425-.533 2.385 2.385 0 0 1 .542 3.367l-8.07 10.922a2.48 2.48 0 0 1-3.425.533" opacity=".639"/>
        <path fill="#FF7500" d="M27.265 15.283a2.384 2.384 0 0 1-.542-3.367L34.793.994a2.48 2.48 0 0 1 3.425-.533 2.385 2.385 0 0 1 .543 3.367L30.69 14.75a2.48 2.48 0 0 1-3.425.533" opacity=".639"/>
        <path fill="#EF8F97" d="M35.06 23.012a2.385 2.385 0 0 0 .542 3.367 2.48 2.48 0 0 0 3.425-.533 2.385 2.385 0 0 0-.543-3.368 2.48 2.48 0 0 0-3.425.534"/>
        <path fill="#FF7500" d="M38.545 26.372a2.385 2.385 0 0 0 .543-3.367l-8.071-10.922a2.48 2.48 0 0 0-3.425-.533 2.385 2.385 0 0 0-.542 3.367l8.07 10.922a2.48 2.48 0 0 0 3.425.533" opacity=".639"/>
        <path fill="#FF7500" d="M30.372 15.444a2.384 2.384 0 0 0 .542-3.368l-8.07-10.921A2.48 2.48 0 0 0 19.419.62a2.384 2.384 0 0 0-.543 3.368l8.071 10.921a2.48 2.48 0 0 0 3.425.534" opacity=".639"/>
        <path fill="#FF1717" d="M22.322 26.24a2.48 2.48 0 0 1-3.425-.533L8.905 12.185a2.384 2.384 0 0 1 .542-3.367 2.48 2.48 0 0 1 3.425.533l9.993 13.522a2.384 2.384 0 0 1-.543 3.367M35.602 26.24a2.48 2.48 0 0 0 3.425-.533l9.992-13.522a2.385 2.385 0 0 0-.542-3.367 2.48 2.48 0 0 0-3.425.533l-9.993 13.522a2.384 2.384 0 0 0 .543 3.367" opacity=".598"/>
        <g fill="#FFF" opacity=".303">
            <path d="M22.004 24.59c0 .62-.512 1.124-1.144 1.124a1.135 1.135 0 0 1-1.144-1.125c0-.621.512-1.125 1.144-1.125.632 0 1.144.504 1.144 1.125M35.899 24.59c0 .62.512 1.124 1.144 1.124.632 0 1.144-.503 1.144-1.125 0-.621-.512-1.125-1.144-1.125-.632 0-1.144.504-1.144 1.125"/>
        </g>
        <text fill="#F37574" font-family="Mitr-Regular, Mitr" font-size="12">
            <tspan x="0" y="44.564">WorkAxle</tspan>
        </text>
    </g>
</svg>
